<?xml version="1.0" encoding="utf-8"?>
<!-- Generator: Adobe Illustrator 24.2.3, SVG Export Plug-In . SVG Version: 6.00 Build 0)  -->
<svg version="1.1" id="Ebene_1" xmlns="http://www.w3.org/2000/svg" xmlns:xlink="http://www.w3.org/1999/xlink" x="0px" y="0px"
	 viewBox="0 0 50 50" style="enable-background:new 0 0 50 50;" xml:space="preserve">
<style type="text/css">
	.st0{fill:#FFFFFF;}
</style>
<g>
	<path class="st0" d="M31.7,23.1c0.2,0,0.5,0,0.6-0.1c0.5-0.2,0.7-0.7,0.7-1.2c0-0.2,0-0.5-0.1-0.6l-4.6-8.1
		c-0.2-0.5-0.7-0.7-1.2-0.7c-0.2,0-0.5,0-0.6,0.1c-0.5,0.2-0.7,0.7-0.7,1.2c0,0.2,0,0.5,0.1,0.6l4.6,8.1
		C30.9,22.9,31.3,23.1,31.7,23.1z"/>
	<path class="st0" d="M17.9,23c0.2,0.1,0.5,0.1,0.6,0.1c0.5,0,0.9-0.2,1.2-0.7l4.6-8.1c0.1-0.2,0.1-0.5,0.1-0.6
		c0-0.5-0.2-0.9-0.7-1.2c-0.2-0.1-0.5-0.1-0.6-0.1c-0.5,0-0.9,0.2-1.2,0.7l-4.6,8.1c-0.1,0.2-0.1,0.5-0.1,0.6
		C17.3,22.3,17.6,22.8,17.9,23z"/>
	<path class="st0" d="M37,21.4h-2.9c0.2,1-0.2,2.1-1.2,2.6c-0.3,0.2-0.8,0.3-1.2,0.3c-0.9,0-1.7-0.5-2.2-1.3l-1-1.7h-6.9l-1,1.7
		c-0.5,0.8-1.3,1.3-2.2,1.3c-0.5,0-0.8-0.1-1.2-0.3c-0.6-0.3-1-0.8-1.2-1.5c-0.1-0.3-0.1-0.8,0-1.2h-2.9c-0.7,0-1.3,0.6-1.3,1.3
		c0,0.7,0.6,1.3,1.3,1.3h0.5c0,0.1,0,0.1,0,0.2l2.5,9.4c0.2,0.8,1,1.5,1.8,1.5h0.5c0,0,0,0.2,0,0.5s0.2,0.5,0.6,0.5h3.3
		c0.3,0,0.6-0.2,0.6-0.5v-0.5h4.4c0,0,0,0.2,0,0.5S27.7,36,28,36h3.3c0.3,0,0.6-0.2,0.6-0.5v-0.5h0.1c0.8,0,1.7-0.7,1.8-1.5l2.5-9.4
		c0-0.1,0-0.1,0-0.2h0.5c0.7,0,1.3-0.6,1.3-1.3C38.3,22,37.7,21.4,37,21.4z M19.9,32.5c0,0.3-0.3,0.7-0.7,0.7
		c-0.3,0-0.7-0.3-0.7-0.7v-5.5c0-0.3,0.3-0.7,0.7-0.7c0.3,0,0.7,0.3,0.7,0.7V32.5z M23.9,32.5c0,0.3-0.3,0.7-0.7,0.7
		c-0.3,0-0.7-0.3-0.7-0.7v-5.5c0-0.3,0.3-0.7,0.7-0.7c0.3,0,0.7,0.3,0.7,0.7V32.5z M27.9,32.5c0,0.3-0.3,0.7-0.7,0.7
		c-0.3,0-0.7-0.3-0.7-0.7v-5.5c0-0.3,0.3-0.7,0.7-0.7c0.3,0,0.7,0.3,0.7,0.7V32.5z M32,32.5c0,0.3-0.3,0.7-0.7,0.7
		c-0.3,0-0.7-0.3-0.7-0.7v-5.5c0-0.3,0.3-0.7,0.7-0.7c0.3,0,0.7,0.3,0.7,0.7V32.5z"/>
</g>
</svg>
