<?xml version="1.0" encoding="utf-8"?>
<!-- Generator: Adobe Illustrator 24.2.3, SVG Export Plug-In . SVG Version: 6.00 Build 0)  -->
<svg version="1.1" id="Ebene_1" xmlns="http://www.w3.org/2000/svg" xmlns:xlink="http://www.w3.org/1999/xlink" x="0px" y="0px"
	 viewBox="0 0 50 50" style="enable-background:new 0 0 50 50;" xml:space="preserve">
<style type="text/css">
	.st0{fill:#FFFFFF;}
</style>
<path class="st0" d="M28.9,14.7"/>
<g>
	<g>
		<path class="st0" d="M26,44.4c-0.9,1.4-2.3,2.3-3.9,2.3c-1.6,0.1-3-0.6-4.1-1.9L8.9,33.3c-1.5-1.8-1.4-4.6,0.3-6.3
			s4.2-1.5,5.6,0.3l6.6,8.2c0.1,0.1,0.2,0.2,0.4,0.2c0.1,0,0.3-0.1,0.3-0.2L35.6,15c1.3-2,3.8-2.4,5.5-0.9c1.9,1.4,2.2,4.3,0.9,6.3
			L26,44.4z"/>
	</g>
</g>
</svg>
