<?xml version="1.0" encoding="utf-8"?>
<!-- Generator: Adobe Illustrator 24.2.3, SVG Export Plug-In . SVG Version: 6.00 Build 0)  -->
<svg version="1.1" id="Ebene_1" xmlns="http://www.w3.org/2000/svg" xmlns:xlink="http://www.w3.org/1999/xlink" x="0px" y="0px"
	 viewBox="0 0 50 50" style="enable-background:new 0 0 50 50;" xml:space="preserve">
<style type="text/css">
	.st0{fill:#EF7F7F;}
</style>
<g>
	<g>
		<path class="st0" d="M33.4,3.7H30c-0.6-1.7-2.3-3-4.4-3c-1.9,0-3.7,1.1-4.4,3h-3.3c-0.8,0-1.5,0.7-1.5,1.4v5.8
			c0,0.8,0.7,1.4,1.5,1.4h15.4c0.8,0,1.5-0.7,1.5-1.4V5C34.9,4.2,34.3,3.7,33.4,3.7z"/>
	</g>
</g>
<g>
	<g>
		<path class="st0" d="M41.1,6.5H38v4.4c0,2.4-2,4.4-4.6,4.4H18.2c-2.4,0-4.6-1.9-4.6-4.4V6.5h-3c-1.7,0-3.2,1.3-3.2,3.1v35.2
			c0,1.6,1.3,3,3.1,3H41c1.7,0,3.1-1.2,3.1-3V9.4C44.1,7.8,42.7,6.5,41.1,6.5z M25.3,32.5l-5.9,5.8c-0.2,0.2-0.7,0.5-1.1,0.5
			c-0.3,0-0.7-0.1-1.1-0.5L14,35.3c-0.6-0.6-0.6-1.5,0-1.9c0.6-0.6,1.6-0.6,2,0l1.9,1.8l5.1-4.9c0.6-0.6,1.6-0.6,2,0
			C25.9,31,25.9,31.9,25.3,32.5z M25.3,20.9l-5.9,5.7c-0.2,0.2-0.7,0.5-1.1,0.5c-0.3,0-0.7-0.1-1.1-0.5l-3.1-3
			c-0.6-0.6-0.6-1.5,0-1.9c0.6-0.6,1.6-0.6,2,0l1.9,1.8l5.1-4.9c0.6-0.6,1.6-0.6,2,0C25.9,19.3,25.9,20.3,25.3,20.9z M36.5,35.9
			h-6.1c-0.8,0-1.5-0.7-1.5-1.4c0-0.8,0.7-1.4,1.5-1.4h6.1c0.8,0,1.5,0.7,1.5,1.4C38,35.2,37.2,35.9,36.5,35.9z M36.5,24.1h-6.1
			c-0.8,0-1.5-0.7-1.5-1.4c0-0.8,0.7-1.4,1.5-1.4h6.1c0.8,0,1.5,0.7,1.5,1.4C38,23.4,37.2,24.1,36.5,24.1z"/>
	</g>
</g>
</svg>
